<svg xmlns="http://www.w3.org/2000/svg" width="203" height="63" fill="none" viewBox="0 0 203 63"><path fill="#88F4DB" d="M153.832 9.18233C154.969 10.3462 155.537 11.9654 155.537 14.0364V23.0803H150.82V14.6731C150.82 13.6735 150.556 12.9033 150.029 12.3556C149.502 11.8113 148.776 11.5375 147.852 11.5375C146.928 11.5375 146.202 11.8113 145.675 12.3556C145.148 12.8999 144.884 13.6735 144.884 14.6731V23.0803H140.167V14.6731C140.167 13.6735 139.903 12.9033 139.376 12.3556C138.849 11.8113 138.123 11.5375 137.199 11.5375C136.275 11.5375 135.549 11.8113 135.022 12.3556C134.495 12.8999 134.231 13.6735 134.231 14.6731V23.0803H129.487V7.60084H134.231V9.54177C134.711 8.89479 135.34 8.38132 136.117 8.00135C136.895 7.62138 137.771 7.43311 138.753 7.43311C139.921 7.43311 140.958 7.68299 141.875 8.18277C142.789 8.68255 143.508 9.39457 144.025 10.3188C144.562 9.46646 145.291 8.77498 146.216 8.23755C147.14 7.70011 148.15 7.43311 149.238 7.43311C151.162 7.43311 152.692 8.01504 153.829 9.18233H153.832Z"/><path fill="#88F4DB" d="M161.822 22.3307C160.61 21.6838 159.659 20.7595 158.964 19.5546C158.269 18.353 157.923 16.9461 157.923 15.3372C157.923 13.7284 158.272 12.3454 158.977 11.1336C159.679 9.92182 160.641 8.99415 161.863 8.34717C163.085 7.7002 164.454 7.375 165.967 7.375C167.481 7.375 168.853 7.7002 170.072 8.34717C171.294 8.99415 172.256 9.92525 172.958 11.1336C173.659 12.3454 174.012 13.7455 174.012 15.3372C174.012 16.929 173.656 18.3291 172.944 19.5409C172.232 20.7527 171.26 21.6838 170.031 22.3307C168.802 22.9777 167.426 23.3029 165.909 23.3029C164.393 23.3029 163.027 22.9811 161.819 22.3307H161.822ZM168.23 18.199C168.87 17.5315 169.189 16.5798 169.189 15.3407C169.189 14.1015 168.877 13.1499 168.258 12.4823C167.638 11.8148 166.875 11.4828 165.967 11.4828C165.06 11.4828 164.276 11.8114 163.664 12.4686C163.054 13.1259 162.746 14.081 162.746 15.3407C162.746 16.6004 163.048 17.5315 163.647 18.199C164.246 18.8665 165.002 19.1986 165.909 19.1986C166.816 19.1986 167.587 18.8665 168.227 18.199H168.23Z"/><path fill="#88F4DB" d="M183.364 8.16908C184.196 7.67957 185.12 7.43311 186.137 7.43311V12.4549H184.833C183.648 12.4549 182.762 12.7082 182.169 13.2182C181.577 13.7283 181.283 14.6183 181.283 15.8951V23.0803H176.538V7.60084H181.283V10.1819C181.837 9.33295 182.532 8.66202 183.364 8.16908Z"/><path fill="#88F4DB" d="M202.925 16.4772H192.186C192.258 17.4391 192.57 18.175 193.114 18.6817C193.658 19.1917 194.329 19.445 195.127 19.445C196.311 19.445 197.133 18.9453 197.595 17.9457H202.644C202.384 18.9624 201.918 19.8798 201.241 20.6911C200.566 21.5058 199.721 22.1425 198.704 22.6046C197.687 23.0667 196.547 23.2995 195.291 23.2995C193.775 23.2995 192.426 22.9777 191.242 22.3273C190.057 21.6804 189.133 20.7561 188.465 19.5512C187.801 18.3496 187.466 16.9427 187.466 15.3338C187.466 13.725 187.794 12.318 188.448 11.1165C189.106 9.91499 190.026 8.99074 191.211 8.34034C192.395 7.69336 193.754 7.36816 195.288 7.36816C196.821 7.36816 198.119 7.68309 199.283 8.30953C200.446 8.93939 201.357 9.83625 202.014 11.0001C202.671 12.164 203 13.523 203 15.0771C203 15.5221 202.973 15.9842 202.918 16.4635L202.925 16.4772ZM198.153 13.8413C198.153 13.0266 197.876 12.3797 197.321 11.9004C196.767 11.4212 196.072 11.1781 195.24 11.1781C194.408 11.1781 193.775 11.4109 193.227 11.873C192.679 12.3352 192.344 12.9924 192.214 13.8413H198.149H198.153Z"/><path fill="#88F4DB" d="M88.4506 23.3303C84.5242 23.3303 82.5627 22.4642 82.5627 20.7321C82.5627 20.1878 82.7065 19.7599 83.0009 19.4484C83.2953 19.1335 83.6787 18.9794 84.1614 18.9794C84.3702 18.9794 84.5721 19.0068 84.7707 19.0582C84.9692 19.1095 85.3595 19.2293 85.9448 19.4176C86.1947 19.5032 86.5302 19.5853 86.9478 19.6675C87.3654 19.7496 87.7728 19.7941 88.1699 19.7941C88.923 19.7941 89.4535 19.7017 89.765 19.5134C90.08 19.3252 90.234 19.0137 90.234 18.5755C90.234 18.2195 90.1484 17.9456 89.9841 17.7471C89.8164 17.5486 89.4604 17.3569 88.9195 17.1686C88.3752 16.9803 87.5297 16.7202 86.383 16.3847C85.3389 16.0937 84.5002 15.5665 83.8601 14.8032C83.2234 14.0398 82.9051 13.095 82.9051 11.9688C82.9051 10.3805 83.4767 9.17211 84.6269 8.33686C85.7737 7.50161 87.3517 7.08398 89.3577 7.08398C90.8605 7.08398 92.0414 7.2928 92.8972 7.71042C93.753 8.12805 94.1809 8.73394 94.1809 9.52811C94.1809 10.0279 94.0337 10.4455 93.7428 10.781C93.4518 11.1165 93.0547 11.2808 92.5515 11.2808C92.3427 11.2808 92.0962 11.25 91.8155 11.1883C91.5348 11.1267 91.1925 11.0411 90.7988 10.9385C90.5045 10.8358 90.1964 10.7502 89.8746 10.6886C89.5528 10.6269 89.2105 10.5961 88.8579 10.5961C87.8549 10.5961 87.3552 10.9521 87.3552 11.6607C87.3552 12.0784 87.5537 12.4275 87.9508 12.7116C88.3479 12.9923 89.1112 13.3004 90.2374 13.6359C91.7813 14.0946 92.9212 14.7073 93.6537 15.4673C94.3829 16.2306 94.7492 17.237 94.7492 18.4899C94.7492 19.9516 94.1912 21.1257 93.0752 22.0123C91.9593 22.8989 90.4189 23.3439 88.454 23.3439L88.4506 23.3303Z"/><path fill="#88F4DB" d="M105.115 23.3301C103.027 23.3301 101.394 22.9844 100.213 22.2963C99.0319 21.6083 98.1967 20.6567 97.7072 19.4449C97.2177 18.2331 96.9712 16.8467 96.9712 15.2789C96.9712 12.3966 97.6079 10.3256 98.8813 9.06244C100.155 7.7993 101.866 7.16602 104.019 7.16602C105.313 7.16602 106.464 7.3851 107.463 7.82326C108.466 8.26142 109.25 8.88444 109.811 9.68545C110.376 10.4899 110.657 11.4655 110.657 12.6157C110.657 15.9567 108.278 17.6272 103.516 17.6272H101.699C101.866 18.2741 102.14 18.7808 102.53 19.147C102.917 19.5133 103.602 19.6947 104.581 19.6947C105.125 19.6947 105.563 19.6639 105.895 19.6023C106.231 19.5407 106.549 19.4757 106.85 19.414C107.152 19.3524 107.501 19.3216 107.898 19.3216C108.463 19.3216 108.911 19.4209 109.243 19.6194C109.579 19.818 109.743 20.2219 109.743 20.8244C109.743 21.6802 109.373 22.3135 108.63 22.7208C107.888 23.1282 106.713 23.3301 105.108 23.3301H105.115ZM101.479 15.3131C101.647 15.0838 101.835 14.9331 102.044 14.8578C102.253 14.7859 102.578 14.7483 103.016 14.7483C104.249 14.7483 105.098 14.6285 105.57 14.3889C106.039 14.1492 106.275 13.7145 106.275 13.0881C106.275 12.2939 106.056 11.6846 105.618 11.2567C105.18 10.8288 104.625 10.6131 103.958 10.6131C103.184 10.6131 102.582 10.9383 102.14 11.5853C101.702 12.2323 101.483 13.4749 101.483 15.3131H101.479Z"/><path fill="#88F4DB" d="M120.775 23.3301C118.687 23.3301 117.054 22.9844 115.873 22.2963C114.692 21.6083 113.857 20.6567 113.368 19.4449C112.878 18.2331 112.632 16.8467 112.632 15.2789C112.632 12.3966 113.268 10.3256 114.542 9.06244C115.815 7.7993 117.527 7.16602 119.68 7.16602C120.974 7.16602 122.124 7.3851 123.124 7.82326C124.127 8.26142 124.91 8.88444 125.472 9.68545C126.037 10.4899 126.317 11.4655 126.317 12.6157C126.317 15.9567 123.938 17.6272 119.177 17.6272H117.359C117.527 18.2741 117.801 18.7808 118.191 19.147C118.578 19.5133 119.262 19.6947 120.241 19.6947C120.786 19.6947 121.224 19.6639 121.556 19.6023C121.891 19.5407 122.21 19.4757 122.511 19.414C122.812 19.3524 123.161 19.3216 123.558 19.3216C124.123 19.3216 124.572 19.4209 124.904 19.6194C125.239 19.818 125.403 20.2219 125.403 20.8244C125.403 21.6802 125.034 22.3135 124.291 22.7208C123.548 23.1282 122.374 23.3301 120.768 23.3301H120.775ZM117.143 15.3131C117.311 15.0838 117.499 14.9331 117.708 14.8578C117.917 14.7859 118.242 14.7483 118.68 14.7483C119.913 14.7483 120.762 14.6285 121.234 14.3889C121.703 14.1492 121.939 13.7145 121.939 13.0881C121.939 12.2939 121.72 11.6846 121.282 11.2567C120.844 10.8288 120.289 10.6131 119.622 10.6131C118.848 10.6131 118.246 10.9383 117.804 11.5853C117.366 12.2323 117.147 13.4749 117.147 15.3131H117.143Z"/><path fill="#88F4DB" d="M97.8168 35.852C98.4364 34.6505 99.2819 33.7262 100.353 33.0758C101.428 32.4288 102.62 32.1036 103.934 32.1036C104.934 32.1036 105.885 32.3227 106.792 32.754C107.699 33.1888 108.418 33.7673 108.956 34.4896V27.1914H112.896V47.7235H108.956V45.4471C108.473 46.207 107.799 46.8163 106.929 47.2785C106.06 47.7406 105.053 47.9734 103.907 47.9734C102.613 47.9734 101.428 47.6413 100.353 46.9738C99.2819 46.3063 98.4364 45.3683 97.8168 44.1565C97.1972 42.9447 96.8857 41.5549 96.8857 39.9803C96.8857 38.4056 97.1938 37.0501 97.8168 35.8451V35.852ZM108.429 37.6149C108.059 36.9405 107.559 36.4202 106.929 36.0608C106.299 35.7014 105.625 35.5199 104.903 35.5199C104.18 35.5199 103.516 35.6945 102.907 36.0471C102.298 36.3997 101.801 36.9132 101.421 37.5875C101.041 38.2619 100.853 39.0629 100.853 39.9871C100.853 40.9114 101.041 41.7227 101.421 42.4142C101.801 43.1056 102.301 43.6396 102.921 44.0093C103.54 44.379 104.201 44.5639 104.903 44.5639C105.604 44.5639 106.299 44.3825 106.929 44.023C107.559 43.6636 108.055 43.1467 108.429 42.4689C108.798 41.7946 108.983 40.9833 108.983 40.0419C108.983 39.1005 108.798 38.2893 108.429 37.6149Z"/><path fill="#88F4DB" d="M116.627 35.8524C117.247 34.6508 118.089 33.7266 119.153 33.0762C120.218 32.4292 121.406 32.104 122.717 32.104C123.864 32.104 124.867 32.3368 125.726 32.7989C126.585 33.261 127.273 33.843 127.793 34.5481V32.3573H131.706V47.7273H127.793V45.4783C127.294 46.2005 126.606 46.7962 125.726 47.2686C124.846 47.741 123.833 47.9772 122.69 47.9772C121.396 47.9772 120.215 47.6451 119.153 46.9776C118.089 46.3101 117.25 45.3721 116.627 44.1603C116.008 42.9485 115.699 41.5587 115.699 39.9841C115.699 38.4094 116.008 37.0539 116.627 35.8489V35.8524ZM127.239 37.6153C126.869 36.9409 126.369 36.4206 125.74 36.0612C125.11 35.7017 124.435 35.5203 123.713 35.5203C122.991 35.5203 122.327 35.6949 121.717 36.0475C121.108 36.4001 120.612 36.9135 120.232 37.5879C119.852 38.2623 119.663 39.0633 119.663 39.9875C119.663 40.9118 119.852 41.7231 120.232 42.4145C120.612 43.1094 121.111 43.64 121.731 44.0097C122.351 44.3794 123.011 44.5643 123.713 44.5643C124.415 44.5643 125.11 44.3828 125.74 44.0234C126.369 43.664 126.869 43.1471 127.239 42.4693C127.609 41.7949 127.793 40.9837 127.793 40.0423C127.793 39.1009 127.609 38.2896 127.239 37.6153Z"/><path fill="#88F4DB" d="M140.027 35.5477V42.9828C140.027 43.4997 140.154 43.8762 140.404 44.1056C140.654 44.3383 141.075 44.4513 141.667 44.4513H143.471V47.7238H141.03C137.758 47.7238 136.118 46.1321 136.118 42.952V35.5443H134.287V32.3539H136.118V28.5542H140.031V32.3539H143.471V35.5443H140.031L140.027 35.5477Z"/><path fill="#88F4DB" d="M146.203 35.8524C146.823 34.6508 147.665 33.7266 148.726 33.0762C149.791 32.4292 150.979 32.104 152.293 32.104C153.44 32.104 154.443 32.3368 155.302 32.7989C156.161 33.261 156.849 33.843 157.37 34.5481V32.3573H161.282V47.7273H157.37V45.4783C156.87 46.2005 156.182 46.7962 155.302 47.2686C154.422 47.741 153.409 47.9772 152.266 47.9772C150.972 47.9772 149.791 47.6451 148.726 46.9776C147.662 46.3101 146.819 45.3721 146.203 44.1603C145.584 42.9485 145.272 41.5587 145.272 39.9841C145.272 38.4094 145.58 37.0539 146.203 35.8489V35.8524ZM156.815 37.6153C156.445 36.9409 155.946 36.4206 155.316 36.0612C154.686 35.7017 154.012 35.5203 153.289 35.5203C152.567 35.5203 151.903 35.6949 151.29 36.0475C150.681 36.4001 150.184 36.9135 149.804 37.5879C149.424 38.2623 149.236 39.0633 149.236 39.9875C149.236 40.9118 149.424 41.7231 149.804 42.4145C150.184 43.1094 150.684 43.64 151.304 44.0097C151.923 44.3794 152.584 44.5643 153.289 44.5643C153.994 44.5643 154.686 44.3828 155.316 44.0234C155.942 43.664 156.442 43.1471 156.815 42.4693C157.185 41.7949 157.37 40.9837 157.37 40.0423C157.37 39.1009 157.185 38.2896 156.815 37.6153Z"/><path fill="#88F4DB" d="M84.3536 32.7373C83.8367 32.7373 83.3233 32.9598 82.9707 33.3911C82.3442 34.1545 82.4538 35.2841 83.2171 35.9106L88.6976 40.4189L83.2171 44.9271C82.4538 45.5536 82.3442 46.6832 82.9707 47.4466C83.6005 48.2099 84.7268 48.3195 85.4901 47.693L92.6514 41.8018C93.0656 41.4629 93.3052 40.9563 93.3052 40.4189C93.3052 39.8848 93.0656 39.3782 92.6514 39.0359L85.4901 33.1447C85.1581 32.8708 84.7541 32.7373 84.3536 32.7373Z"/><path fill="#88F4DB" d="M70.8687 5.38201C68.8485 3.59108 63.8694 3.82035 61.6848 5.7973L61.3776 6.07416C61.2868 6.15635 61.1959 6.24287 61.1051 6.32507C55.3819 1.60115 47.7856 -0.821373 39.8734 0.251458C34.1372 1.03013 29.0586 3.53484 25.0787 7.1643C25.0614 7.15564 25.0398 7.14267 25.0225 7.13401L24.4947 6.85283C20.9907 4.98835 14.8263 5.3128 11.2314 8.77354C8.29413 11.6027 8.30278 14.4578 9.55297 15.9113C10.4311 16.9322 11.7981 17.1139 12.8061 16.3439C12.9661 16.2185 13.1219 16.0973 13.2733 15.9805C13.9092 15.4831 14.5062 15.0159 14.7787 15.0591C15.0123 15.0937 15.752 15.4138 17.517 17.6114C17.6079 17.7239 17.6987 17.832 17.7895 17.9402C16.535 21.2928 15.9207 24.9222 16.0765 28.6685C15.7823 29.0622 14.6316 30.1134 13.1781 30.1696C12.5335 30.1912 11.9236 30.0139 11.3569 29.7111C11.4521 29.5813 11.5472 29.4472 11.6424 29.3174C12.7282 27.8812 13.1997 26.207 12.9099 24.8444C12.6936 23.8278 12.0836 23.0188 11.1536 22.5084C9.71736 21.7211 7.91344 21.9806 6.66758 23.1573C5.57744 24.1868 4.81175 26.1249 5.93649 28.4738L6.05762 28.6815C6.39072 29.166 6.72381 29.5986 7.06124 29.9879C6.90118 30.0441 6.73246 30.0744 6.5378 30.0744C5.64233 30.0744 3.26307 29.0189 3.00784 27.4097C2.87806 26.5834 2.09939 26.021 1.27747 26.1508C0.451212 26.2806 -0.111159 27.0593 0.0186192 27.8812C0.563687 31.3203 4.56085 33.1069 6.55078 33.0983C7.78367 33.0939 8.69211 32.6657 9.41022 32.073C10.9719 33.068 12.4167 33.2626 13.5372 33.1804C13.7145 33.1675 13.8919 33.1458 14.0649 33.1199C14.9777 32.9728 15.7866 32.644 16.4701 32.2417C18.9835 46.7422 32.5886 56.8044 47.2924 54.8058C47.5 54.7798 47.699 54.7495 47.9067 54.7149C54.0884 53.7373 59.4699 50.7351 63.4973 46.4957C69.2249 43.9866 72.5082 39.0897 71.6431 33.6347C71.5046 32.7608 71.2451 31.9086 70.873 31.0997C71.1888 28.7377 71.2061 26.2979 70.8687 23.8235C70.4058 20.4189 69.333 17.248 67.78 14.3973C68.2039 13.8911 68.6149 13.2466 68.9913 12.4246C69.3244 11.7022 69.5709 11.3388 69.7137 11.1615C69.7656 11.1917 69.8218 11.2263 69.8651 11.2523C70.1549 11.4297 70.5183 11.646 70.9639 11.7628C71.894 12.005 72.8111 11.62 73.248 10.8024C73.992 9.40513 73.0836 7.32436 70.8774 5.37336L70.8687 5.38201ZM9.2242 27.4962C9.17662 27.5611 9.12903 27.6259 9.08145 27.6865C8.91706 27.4789 8.76133 27.2712 8.61857 27.0679C8.3071 26.3498 8.35036 25.7312 8.74402 25.3592C9.02521 25.091 9.41454 25.0131 9.6914 25.1645C9.86876 25.2597 9.91635 25.3548 9.94663 25.4803C10.0331 25.8783 9.84281 26.6742 9.2242 27.4962ZM48.8411 10.4693C48.3306 9.20614 47.8548 8.0987 47.2059 7.25514C45.7956 5.42095 44.5498 4.0626 43.4553 3.03736C45.1121 3.02871 46.7343 3.18877 48.3176 3.50023L48.8411 10.4693ZM57.9212 44.9773C52.7993 45.7905 48.8973 45.2195 46.6392 43.3248C45.1857 42.1092 44.4286 40.3701 44.3854 38.1682C44.2772 32.5272 49.8706 28.0283 55.1137 27.0939C55.2175 27.0766 55.317 27.0593 55.4208 27.0419C59.0762 26.4623 62.6624 27.1977 65.2969 29.0708C67.1701 30.4032 68.3207 32.1465 68.6322 34.1148C69.4541 39.293 64.9465 43.8655 57.9169 44.9773H57.9212ZM68.0742 27.4097C67.7541 27.1285 67.4166 26.8559 67.0576 26.605C63.6877 24.2085 59.1454 23.3043 54.5859 24.1133C47.9759 25.2943 41.2231 30.8964 41.3615 38.2288C41.3702 38.696 41.4091 39.1459 41.4654 39.5872C40.916 39.4487 40.3623 39.2281 39.709 38.8907C38.965 38.51 38.0522 38.7998 37.6715 39.5439C37.2908 40.288 37.5807 41.2007 38.3247 41.5814C39.7956 42.3384 41.0068 42.6932 42.43 42.784C42.9794 43.8785 43.7408 44.8432 44.6968 45.6478C47.4092 47.9232 51.4583 48.7711 56.7402 48.1871C53.8419 50.0429 50.5066 51.3191 46.8728 51.8122C33.484 53.6291 21.1162 44.2159 19.295 30.8315C18.7932 27.1241 19.1522 23.4904 20.2164 20.1421C20.3678 20.2373 20.5192 20.3281 20.6706 20.4103C20.6836 20.4146 20.6922 20.4233 20.7052 20.4276C20.9994 20.579 21.3541 20.6179 21.7045 20.5184C22.4183 20.3151 22.8076 19.5797 22.6259 18.8616C22.5827 18.6842 22.5005 18.5285 22.3967 18.3944C22.3923 18.3858 22.388 18.3814 22.3794 18.3728C22.1198 18.031 21.8343 17.6936 21.5228 17.3648C20.8999 16.902 20.3289 16.2877 19.8703 15.721C16.362 11.3518 14.4672 11.3475 11.8154 13.2941C11.9279 12.7534 12.3216 11.9358 13.3295 10.9625C16.0721 8.32365 20.848 8.3496 23.0715 9.53058L23.6036 9.81177C24.512 10.2919 25.2388 10.6856 25.8012 11.0447C25.8012 11.0447 25.8055 11.0447 25.8141 11.0533C26.1559 11.2739 26.4328 11.4816 26.6534 11.6892C26.9908 11.9618 27.4061 12.3035 27.8387 12.7058C27.8387 12.7058 27.8387 12.7058 27.843 12.7101C28.1718 12.9827 28.6303 13.0822 29.0759 12.9524C29.7897 12.7491 30.2006 12.005 29.9973 11.2956C29.9757 11.2134 29.9411 11.1355 29.9022 11.062C29.9022 11.0533 29.8978 11.049 29.8935 11.0403C29.4566 10.1319 28.7168 9.40946 27.83 8.77787C30.9793 6.12175 34.8251 4.23131 39.125 3.43967C40.4791 4.31351 42.3219 5.86652 44.8093 9.10231C45.2852 9.72092 45.7221 10.8154 46.2325 12.0829L46.2845 12.2127C46.7819 13.4542 48.0235 14.2026 49.3213 14.1074C49.477 14.0944 49.637 14.0728 49.7971 14.0339C52.3018 13.4412 52.5051 13.3936 53.9457 13.2812C54.2312 13.2595 54.5556 13.2379 54.932 13.2119C54.9363 13.2119 54.945 13.2119 54.9493 13.2119C55.9313 13.1384 56.8138 12.5933 57.3199 11.7498C57.8304 10.9019 57.8909 9.85935 57.4886 8.95523C57.0906 8.06409 56.6364 7.25514 56.1519 6.51541C62.3207 10.2141 66.8196 16.5689 67.8622 24.2301C68.005 25.2986 68.0742 26.3585 68.0785 27.4053L68.0742 27.4097ZM68.8788 8.15926C67.8535 8.47505 67.0403 9.4008 66.227 11.1658C66.1578 11.3172 66.0842 11.4599 66.015 11.594C65.2018 10.452 64.3063 9.37917 63.3373 8.37988C63.3589 8.35825 63.3805 8.34095 63.4022 8.32365L63.718 8.03813C64.1549 7.64015 64.8687 7.39357 65.63 7.27244C66.9364 7.0648 68.39 7.22919 68.8615 7.64447C69.0259 7.78723 69.173 7.92999 69.3071 8.05976C69.1686 8.07707 69.0259 8.10735 68.8788 8.15493V8.15926Z"/><path fill="#88F4DB" d="M17.6424 47.7419C18.3734 47.2963 18.5811 46.3965 18.1269 45.6482C17.6856 44.9214 16.8118 44.7008 16.0937 45.1377C13.3207 46.8291 10.7771 48.8796 8.53194 51.2286C7.93929 51.8515 7.96957 52.773 8.60548 53.3786C8.9083 53.6641 9.276 53.8112 9.64371 53.8112C10.0114 53.8112 10.4007 53.6555 10.6949 53.3483C12.7714 51.1681 15.1117 49.2819 17.6424 47.7376V47.7419Z"/><path fill="#88F4DB" d="M21.3281 49.9265C21.1377 49.403 20.6576 49.0007 20.1038 48.9055C19.5804 48.8147 19.0829 49.005 18.7282 49.4246C17.292 51.142 15.8428 52.8508 14.3979 54.5595C12.9488 56.2726 11.5039 57.9813 10.0634 59.6987C9.71296 60.1183 9.61346 60.6418 9.79515 61.1349C9.98549 61.6584 10.4657 62.0607 11.0194 62.1559C11.1059 62.1688 11.1924 62.1775 11.2746 62.1775C11.7029 62.1775 12.1009 61.9872 12.3907 61.6367C13.8269 59.9237 15.2718 58.2149 16.7166 56.5105C18.1658 54.7975 19.615 53.0844 21.0556 51.3627C21.406 50.9431 21.5055 50.4196 21.3238 49.9308L21.3281 49.9265Z"/><path fill="#88F4DB" d="M25.1738 52.9715C24.8926 52.673 24.4817 52.4999 24.0534 52.4956C23.6468 52.4956 23.2747 52.6513 23.0108 52.9325C21.0036 55.0566 19.3425 57.4445 18.0663 60.0314C17.6943 60.7884 17.9062 61.6406 18.5768 62.0602C18.8104 62.2073 19.0959 62.2852 19.3857 62.2852C19.5328 62.2852 19.6842 62.2636 19.827 62.2246C20.2163 62.1122 20.5278 61.8656 20.6921 61.5238C21.8818 59.1143 23.3742 56.947 25.1349 55.0825C25.7145 54.4682 25.7319 53.5598 25.1738 52.9671V52.9715Z"/><path fill="#88F4DB" d="M44.619 20.3111C43.1136 19.978 41.6255 20.9297 41.2967 22.4351C40.9636 23.9405 41.9153 25.4287 43.4207 25.7574C44.9261 26.0905 46.4143 25.1388 46.743 23.6334C47.0761 22.128 46.1244 20.6399 44.619 20.3111ZM45.03 22.9759C43.9268 23.1489 43.6586 21.4402 44.7574 21.2671C45.8605 21.0941 46.1287 22.8028 45.03 22.9759Z"/><path fill="#88F4DB" d="M60.7894 20.3758C60.9754 21.5438 62.0699 22.3398 63.2379 22.1538C64.4059 21.9678 65.2019 20.8733 65.0159 19.7053C64.8298 18.5373 63.7354 17.7413 62.5674 17.9274C61.3994 18.1134 60.6034 19.2078 60.7894 20.3758ZM63.3287 18.7882C64.155 18.6584 64.3583 19.9389 63.5321 20.0687C62.7058 20.1985 62.5025 18.918 63.3287 18.7882Z"/><path fill="#88F4DB" d="M55.6501 34.1843C55.0488 34.2795 54.733 35.4605 54.9493 36.8232C55.1656 38.1858 55.8274 39.2111 56.4288 39.1159C57.0301 39.0207 57.3458 37.8398 57.1295 36.4771C56.9133 35.1144 56.2514 34.0892 55.6458 34.1843H55.6501Z"/><path fill="#88F4DB" d="M62.0395 33.5312C61.5896 33.6004 61.3734 34.5867 61.555 35.7331C61.7367 36.8795 62.2472 37.749 62.6971 37.6798C63.147 37.6106 63.3633 36.6242 63.1816 35.4779C62.9999 34.3315 62.4894 33.462 62.0395 33.5312Z"/></svg>